<svg fill="none" height="24" viewBox="0 0 24 24" width="24" xmlns="http://www.w3.org/2000/svg"><path d="m20.9955 11.7115 1.2493-.0394c-.0122-.3874-.2034-.7472-.5176-.9741s-.7159-.2951-1.0875-.1848zm-8.707-8.70696 1.1983.35574c.1103-.37155.0421-.77325-.1848-1.08748s-.5867-.50544-.9741-.51764zm8.3512 7.50866c-.5181.1538-1.0681.2368-1.6397.2368v2.5c.815 0 1.6046-.1186 2.3512-.3402zm-1.6397.2368c-3.1756 0-5.75-2.57436-5.75-5.75h-2.5c0 4.55635 3.6937 8.25 8.25 8.25zm-5.75-5.75c0-.57159.083-1.12159.2368-1.63972l-2.3966-.71149c-.2216.74663-.3402 1.53617-.3402 2.35121zm-1.25-.75c.0834 0 .1665.00131.2492.00392l.0787-2.49876c-.1089-.00343-.2182-.00516-.3279-.00516zm-7.75 7.75c0-4.28021 3.46979-7.75 7.75-7.75v-2.5c-5.66092 0-10.25 4.58908-10.25 10.25zm7.75 7.75c-4.28021 0-7.75-3.4698-7.75-7.75h-2.5c0 5.6609 4.58908 10.25 10.25 10.25zm7.75-7.75c0 4.2802-3.4698 7.75-7.75 7.75v2.5c5.6609 0 10.25-4.5891 10.25-10.25zm-.0039-.2492c.0026.0827.0039.1658.0039.2492h2.5c0-.1097-.0017-.219-.0052-.3279z" fill="#292929"/></svg>